M48
; DRILL file {KiCad 8.0.1} date 2026-08-23T23:17:39-0400
; FORMAT={-:-/ absolute / inch / decimal}
; #@! TF.CreationDate,2026-08-23T23:17:39-04:00
; #@! TF.GenerationSoftware,Kicad,Pcbnew,8.0.1
; #@! TF.FileFunction,Plated,1,4,PTH
FMAT,2
INCH
; #@! TA.AperFunction,Plated,PTH,ViaDrill
T1C0.0079
; #@! TA.AperFunction,Plated,PTH,ViaDrill
T2C0.0118
; #@! TA.AperFunction,Plated,PTH,ComponentDrill
T3C0.0340
; #@! TA.AperFunction,Plated,PTH,ComponentDrill
T4C0.0350
; #@! TA.AperFunction,Plated,PTH,ComponentDrill
T5C0.0394
; #@! TA.AperFunction,Plated,PTH,ComponentDrill
T6C0.0413
; #@! TA.AperFunction,Plated,PTH,ComponentDrill
T7C0.0472
; #@! TA.AperFunction,Plated,PTH,ComponentDrill
T8C0.0530
; #@! TA.AperFunction,Plated,PTH,ComponentDrill
T9C0.0591
; #@! TA.AperFunction,Plated,PTH,ComponentDrill
T10C0.0630
%
G90
G05
T1
X7.0055Y-2.4571
X7.4031Y-1.9768
X7.411Y-1.9531
X7.5606Y-2.3547
X7.6197Y-2.3547
X7.6276Y-2.402
X7.7061Y-2.4197
X7.7181Y-2.4413
X7.7953Y-10.6496
X7.9724Y-2.0
X8.0Y-2.0
X8.0272Y-2.0004
X8.0547Y-2.0004
X8.0823Y-2.0004
X8.1098Y-2.0004
X8.1374Y-2.0004
X8.165Y-2.0004
X8.3146Y-2.0319
X8.3146Y-2.0555
X8.3382Y-2.0319
X8.3382Y-2.0555
X8.4248Y-1.9571
X8.9307Y-1.9177
X9.0346Y-2.0209
X9.0488Y-2.0398
X9.0564Y-2.0707
X9.0685Y-2.0909
X9.1118Y-2.2839
X9.1118Y-2.778
X9.2004Y-2.2839
X9.2004Y-2.778
X9.2756Y-6.002
X9.2772Y-7.6146
X9.289Y-7.5925
X9.2988Y-6.2858
X9.2988Y-6.5496
X9.3008Y-5.3272
X9.313Y-6.0594
X9.328Y-6.6573
X9.3283Y-1.8547
X9.3362Y-5.5043
X9.3362Y-5.7012
X9.3382Y-6.7091
X9.3402Y-6.6776
X9.3421Y-6.584
X9.3461Y-6.3921
X9.352Y-5.4846
X9.3539Y-5.5339
X9.372Y-6.0122
X9.372Y-6.0791
X9.372Y-6.1028
X9.372Y-6.1264
X9.372Y-6.2051
X9.374Y-4.8937
X9.3756Y-6.4846
X9.3756Y-6.5083
X9.3756Y-6.5319
X9.3795Y-2.7858
X9.3795Y-2.8567
X9.3874Y-6.249
X9.3933Y-6.2734
X9.4031Y-3.7051
X9.411Y-2.0319
X9.411Y-2.0555
X9.4137Y-6.1589
X9.4169Y-6.5969
X9.4189Y-2.8094
X9.4209Y-6.0693
X9.4268Y-1.8626
X9.4276Y-6.4066
X9.4307Y-2.774
X9.4415Y-6.1867
X9.4429Y-6.0535
X9.4465Y-2.2524
X9.4465Y-2.2799
X9.4504Y-6.2248
X9.4524Y-7.5925
X9.4524Y-7.6161
X9.4541Y-2.3508
X9.4543Y-1.9374
X9.4543Y-1.961
X9.4554Y-6.4345
X9.4622Y-6.0378
X9.4661Y-6.5181
X9.472Y-6.0024
X9.4783Y-5.522
X9.4858Y-6.6815
X9.4902Y-3.7091
X9.5055Y-2.3528
X9.5055Y-2.7189
X9.5055Y-5.4846
X9.5114Y-8.2602
X9.5118Y-4.9331
X9.5173Y-5.9492
X9.5193Y-6.5181
X9.5291Y-6.1264
X9.5291Y-6.6185
X9.5305Y-6.4427
X9.5307Y-5.5046
X9.5308Y-5.7908
X9.535Y-2.7878
X9.537Y-2.2839
X9.539Y-7.3075
X9.539Y-7.4807
X9.5394Y-6.7697
X9.5488Y-5.7563
X9.552Y-6.6271
X9.5528Y-5.7996
X9.5528Y-6.1067
X9.5529Y-5.9863
X9.5612Y-3.1273
X9.5614Y-3.1665
X9.5631Y-5.0181
X9.5632Y-5.0573
X9.5646Y-6.2248
X9.5685Y-2.2169
X9.5685Y-5.5201
X9.5724Y-6.087
X9.579Y-7.3745
X9.5791Y-7.4137
X9.5811Y-6.7165
X9.5875Y-6.0688
X9.5882Y-5.3665
X9.5959Y-6.3191
X9.5961Y-5.6303
X9.6025Y-7.0335
X9.603Y-5.9696
X9.6085Y-6.5486
X9.6118Y-7.1224
X9.6138Y-6.6146
X9.6148Y-6.1746
X9.6157Y-6.8031
X9.6197Y-5.6303
X9.6228Y-5.9843
X9.6236Y-2.2839
X9.6256Y-2.7878
X9.6264Y-6.0313
X9.6315Y-6.1579
X9.6319Y-5.7972
X9.6327Y-6.7078
X9.6335Y-6.3528
X9.6354Y-6.009
X9.6364Y-6.5208
X9.6379Y-7.1486
X9.6384Y-6.3016
X9.6457Y-3.1563
X9.649Y-5.0498
X9.6512Y-5.587
X9.6551Y-6.5614
X9.6551Y-7.213
X9.6591Y-6.7957
X9.6591Y-6.939
X9.6594Y-6.185
X9.6598Y-5.82
X9.663Y-6.6146
X9.6642Y-7.4091
X9.6651Y-3.5058
X9.6669Y-5.3966
X9.6701Y-3.1606
X9.6745Y-6.6798
X9.6752Y-6.752
X9.6757Y-5.0514
X9.6787Y-2.3508
X9.6816Y-3.1055
X9.6827Y-6.5358
X9.6827Y-6.5614
X9.6828Y-7.753
X9.6834Y-4.9963
X9.6846Y-6.8035
X9.6901Y-7.4047
X9.6906Y-6.2012
X9.6955Y-5.8242
X9.6969Y-6.6949
X9.6993Y-7.3527
X9.7008Y-4.5272
X9.7024Y-2.2248
X9.7047Y-4.7638
X9.7063Y-6.5969
X9.7115Y-5.9501
X9.7201Y-6.8035
X9.721Y-3.5366
X9.7228Y-5.4274
X9.725Y-6.4483
X9.7264Y-6.7303
X9.7305Y-2.3311
X9.7328Y-5.9136
X9.7339Y-6.0535
X9.7339Y-8.8819
X9.7367Y-3.1272
X9.7378Y-9.0906
X9.7378Y-9.2799
X9.7378Y-9.461
X9.7378Y-9.6421
X9.7378Y-9.8587
X9.7385Y-5.0179
X9.7387Y-7.7838
X9.7417Y-6.465
X9.7422Y-5.7914
X9.748Y-6.7441
X9.75Y-8.3957
X9.7535Y-6.3193
X9.7535Y-6.835
X9.7544Y-7.3743
X9.7575Y-6.4453
X9.7594Y-6.0398
X9.77Y-5.7636
X9.7713Y-6.3409
X9.7713Y-6.4177
X9.7732Y-5.5634
X9.7732Y-6.8547
X9.7772Y-6.2248
X9.7782Y-5.6847
X9.7895Y-6.724
X9.7909Y-5.6402
X9.7944Y-5.9883
X9.7969Y-2.1421
X9.7969Y-6.1854
X9.7978Y-5.7357
X9.8047Y-2.8094
X9.8076Y-3.5327
X9.8094Y-5.4234
X9.8106Y-6.335
X9.8106Y-6.4886
X9.8106Y-6.524
X9.8145Y-6.6989
X9.8165Y-2.0358
X9.8165Y-2.0594
X9.8185Y-6.0122
X9.8195Y-3.1298
X9.8237Y-2.1335
X9.825Y-5.0396
X9.8257Y-5.7079
X9.8264Y-6.2228
X9.8283Y-2.2602
X9.8283Y-6.1972
X9.837Y-7.7795
X9.8371Y-7.4019
X9.8374Y-5.4209
X9.8394Y-3.5307
X9.8441Y-3.1293
X9.848Y-2.2366
X9.8507Y-5.0382
X9.853Y-5.9817
X9.8535Y-5.68
X9.8559Y-2.774
X9.8598Y-1.9335
X9.8598Y-1.9571
X9.8618Y-6.8055
X9.863Y-7.7772
X9.8655Y-7.393
X9.8677Y-5.8547
X9.8709Y-6.0247
X9.8736Y-6.4492
X9.876Y-8.0217
X9.8793Y-2.3508
X9.8996Y-5.9193
X9.9023Y-3.5571
X9.9031Y-8.9646
X9.9043Y-5.4482
X9.9091Y-6.3528
X9.9091Y-6.524
X9.9195Y-7.8046
X9.9307Y-2.3528
X9.9307Y-2.7189
X9.9386Y-3.2996
X9.9386Y-3.4335
X9.9386Y-5.2051
X9.9449Y-8.3937
X9.9504Y-6.5673
X9.9504Y-9.8587
X9.9563Y-7.6795
X9.958Y-3.1665
X9.958Y-3.5661
X9.9583Y-2.2878
X9.9583Y-7.5457
X9.9583Y-8.8819
X9.9598Y-5.0573
X9.9598Y-5.4569
X9.9602Y-2.7878
X9.9642Y-5.6067
X9.9661Y-6.2819
X9.9704Y-5.719
X9.974Y-2.2091
X9.9757Y-7.4137
X9.9757Y-7.8133
X9.976Y-5.8137
X9.9839Y-6.153
X9.9937Y-6.6579
X9.9958Y-3.5681
X9.9976Y-5.4589
X9.9983Y-5.7468
X10.0005Y-3.1626
X10.0023Y-5.0533
X10.0038Y-5.7858
X10.0079Y-6.639
X10.0114Y-6.4728
X10.0135Y-7.8153
X10.0169Y-7.0461
X10.0171Y-6.9278
X10.0182Y-7.4097
X10.0282Y-5.6461
X10.037Y-1.965
X10.0399Y-3.1567
X10.0417Y-5.0533
X10.0508Y-2.2839
X10.0508Y-2.7878
X10.0547Y-5.7484
X10.0576Y-7.4097
X10.0685Y-5.2858
X10.0745Y-3.1575
X10.0763Y-5.0533
X10.0922Y-7.4097
X10.098Y-6.6618
X10.102Y-6.5673
X10.1041Y-5.8471
X10.1122Y-8.0217
X10.1192Y-5.1436
X10.1197Y-3.2484
X10.1295Y-2.7799
X10.1295Y-5.1972
X10.1319Y-5.8749
X10.1351Y-7.5001
X10.1394Y-8.9646
X10.1512Y-6.3232
X10.1512Y-6.3567
X10.1551Y-9.8587
X10.1597Y-6.5152
X10.165Y-5.9079
X10.1669Y-7.5476
X10.1683Y-6.9063
X10.1748Y-2.1185
X10.1748Y-5.589
X10.1764Y-6.0141
X10.178Y-6.3193
X10.1787Y-3.4472
X10.1831Y-8.3937
X10.1866Y-8.8819
X10.1876Y-6.543
X10.1886Y-3.2484
X10.1886Y-6.5004
X10.1965Y-6.7091
X10.2043Y-5.9863
X10.2083Y-2.7799
X10.2083Y-5.6087
X10.2161Y-3.2996
X10.2181Y-5.6303
X10.2217Y-6.4181
X10.224Y-6.4827
X10.2299Y-8.5827
X10.2319Y-6.2307
X10.2339Y-7.4906
X10.2415Y-6.2523
X10.2465Y-6.5929
X10.2473Y-6.4869
X10.2496Y-7.15
X10.252Y-8.0217
X10.2569Y-6.9398
X10.2575Y-6.7091
X10.2575Y-7.5004
X10.2693Y-6.3744
X10.2811Y-2.774
X10.2811Y-7.2169
X10.2929Y-2.1697
X10.2949Y-6.4106
X10.2969Y-9.0591
X10.3041Y-6.7685
X10.3045Y-2.3508
X10.3047Y-6.6815
X10.3106Y-6.6421
X10.3165Y-2.0988
X10.3224Y-6.2917
X10.348Y-6.6421
X10.349Y-6.3259
X10.3559Y-2.3508
X10.3559Y-2.7189
X10.3579Y-6.215
X10.3596Y-6.1518
X10.3769Y-6.3537
X10.3776Y-6.2622
X10.3913Y-8.9252
X10.3933Y-6.1871
X10.3937Y-9.8583
X10.3953Y-9.2205
X10.3953Y-9.4138
X10.3953Y-9.6028
X10.4071Y-8.3937
T2
X6.3165Y-9.6264
X6.3165Y-9.6579
X6.3165Y-9.6894
X6.3165Y-9.7209
X6.3165Y-9.7524
X6.3165Y-9.9965
X6.3165Y-10.028
X6.3165Y-10.0594
X6.3165Y-10.0909
X6.3165Y-10.1224
X6.3244Y-9.587
X6.3244Y-9.7878
X6.3244Y-9.961
X6.3244Y-10.1618
X6.3559Y-9.587
X6.3559Y-9.7878
X6.3559Y-9.961
X6.3559Y-10.1618
X6.3583Y-2.0472
X6.3659Y-1.9923
X6.3858Y-2.063
X6.3874Y-9.587
X6.3874Y-9.7878
X6.3874Y-9.961
X6.3874Y-10.1618
X6.4189Y-9.587
X6.4189Y-9.7878
X6.4189Y-9.961
X6.4189Y-10.1618
X6.4504Y-9.587
X6.4504Y-9.7878
X6.4504Y-9.961
X6.4504Y-10.1618
X6.4819Y-9.587
X6.4819Y-9.7878
X6.4819Y-9.961
X6.4819Y-10.1618
X6.5134Y-9.587
X6.5134Y-9.7878
X6.5134Y-9.961
X6.5134Y-10.1618
X6.5449Y-9.587
X6.5449Y-9.7878
X6.5449Y-9.961
X6.5449Y-10.1618
X6.5528Y-9.6264
X6.5528Y-9.6579
X6.5528Y-9.6894
X6.5528Y-9.7209
X6.5528Y-9.7524
X6.5528Y-9.9965
X6.5528Y-10.028
X6.5528Y-10.0594
X6.5528Y-10.0909
X6.5528Y-10.1224
X6.8835Y-9.4413
X6.8835Y-9.4728
X6.8835Y-9.7169
X6.8835Y-9.7484
X6.8835Y-9.7799
X6.8835Y-9.8114
X6.8835Y-9.8429
X6.8913Y-3.528
X6.8913Y-3.6657
X6.8913Y-3.8272
X6.8913Y-3.965
X6.8913Y-4.1264
X6.8913Y-4.2642
X6.8913Y-5.885
X6.8913Y-6.0228
X6.8913Y-6.1843
X6.8913Y-6.322
X6.8913Y-6.4835
X6.8913Y-6.6213
X6.8913Y-8.2402
X6.8913Y-8.378
X6.8913Y-8.5394
X6.8913Y-8.6772
X6.8913Y-8.8386
X6.8913Y-8.9764
X6.8913Y-9.5083
X6.8913Y-9.6815
X6.8913Y-9.8823
X6.9071Y-9.5358
X6.9228Y-9.5083
X6.9228Y-9.6815
X6.9228Y-9.8823
X6.9386Y-9.5358
X6.9543Y-9.5083
X6.9543Y-9.6815
X6.9543Y-9.8823
X6.9661Y-3.528
X6.9661Y-3.6657
X6.9661Y-3.8272
X6.9661Y-3.965
X6.9661Y-4.1264
X6.9661Y-4.2642
X6.9661Y-5.885
X6.9661Y-6.0228
X6.9661Y-6.1843
X6.9661Y-6.322
X6.9661Y-6.4835
X6.9661Y-6.6213
X6.9661Y-8.2402
X6.9661Y-8.378
X6.9661Y-8.5394
X6.9661Y-8.6772
X6.9661Y-8.8386
X6.9661Y-8.9764
X6.9701Y-9.5358
X6.9858Y-9.5083
X6.9858Y-9.6815
X6.9858Y-9.8823
X7.0016Y-9.5358
X7.0173Y-9.5083
X7.0173Y-9.6815
X7.0173Y-9.8823
X7.0331Y-9.5358
X7.0409Y-3.528
X7.0409Y-3.6657
X7.0409Y-3.8272
X7.0409Y-3.965
X7.0409Y-4.1264
X7.0409Y-4.2642
X7.0409Y-5.885
X7.0409Y-6.0228
X7.0409Y-6.1843
X7.0409Y-6.322
X7.0409Y-6.4835
X7.0409Y-6.6213
X7.0409Y-8.2402
X7.0409Y-8.378
X7.0409Y-8.5394
X7.0409Y-8.6772
X7.0409Y-8.8386
X7.0409Y-8.9764
X7.0488Y-9.5083
X7.0488Y-9.6815
X7.0488Y-9.8823
X7.0646Y-9.5358
X7.0803Y-9.5083
X7.0803Y-9.6815
X7.0803Y-9.8823
X7.0961Y-9.5358
X7.1118Y-9.5083
X7.1118Y-9.6815
X7.1118Y-9.8823
X7.1157Y-3.528
X7.1157Y-3.6657
X7.1157Y-3.8272
X7.1157Y-3.965
X7.1157Y-4.1264
X7.1157Y-4.2642
X7.1157Y-5.885
X7.1157Y-6.0228
X7.1157Y-6.1843
X7.1157Y-6.322
X7.1157Y-6.4835
X7.1157Y-6.6213
X7.1157Y-8.2402
X7.1157Y-8.378
X7.1157Y-8.5394
X7.1157Y-8.6772
X7.1157Y-8.8386
X7.1157Y-8.9764
X7.1197Y-9.4413
X7.1197Y-9.4728
X7.1197Y-9.7169
X7.1197Y-9.7484
X7.1197Y-9.7799
X7.1197Y-9.8114
X7.1197Y-9.8429
X7.2039Y-5.885
X7.2039Y-6.0228
X7.2039Y-6.1843
X7.2039Y-6.322
X7.2039Y-6.4835
X7.2039Y-6.6213
X7.2047Y-8.2402
X7.2047Y-8.378
X7.2047Y-8.5394
X7.2047Y-8.6772
X7.2047Y-8.8386
X7.2047Y-8.9764
X7.2063Y-3.528
X7.2063Y-3.6657
X7.2063Y-3.8272
X7.2063Y-3.965
X7.2063Y-4.1264
X7.2063Y-4.2642
X7.2787Y-5.885
X7.2787Y-6.0228
X7.2787Y-6.1843
X7.2787Y-6.322
X7.2787Y-6.4835
X7.2787Y-6.6213
X7.2795Y-8.2402
X7.2795Y-8.378
X7.2795Y-8.5394
X7.2795Y-8.6772
X7.2795Y-8.8386
X7.2795Y-8.9764
X7.2811Y-3.528
X7.2811Y-3.6657
X7.2811Y-3.8272
X7.2811Y-3.965
X7.2811Y-4.1264
X7.2811Y-4.2642
X7.3421Y-2.3154
X7.3461Y-2.0772
X7.3535Y-5.885
X7.3535Y-6.0228
X7.3535Y-6.1843
X7.3535Y-6.322
X7.3535Y-6.4835
X7.3535Y-6.6213
X7.3543Y-8.2402
X7.3543Y-8.378
X7.3543Y-8.5394
X7.3543Y-8.6772
X7.3543Y-8.8386
X7.3543Y-8.9764
X7.3559Y-3.528
X7.3559Y-3.6657
X7.3559Y-3.8272
X7.3559Y-3.965
X7.3559Y-4.1264
X7.3559Y-4.2642
X7.3815Y-2.0752
X7.3815Y-2.3409
X7.4094Y-9.748
X7.415Y-2.335
X7.415Y-2.4709
X7.4169Y-2.0673
X7.4169Y-2.2012
X7.4283Y-5.885
X7.4283Y-6.0228
X7.4283Y-6.1843
X7.4283Y-6.322
X7.4283Y-6.4835
X7.4283Y-6.6213
X7.4291Y-8.2402
X7.4291Y-8.378
X7.4291Y-8.5394
X7.4291Y-8.6772
X7.4291Y-8.8386
X7.4291Y-8.9764
X7.4307Y-3.528
X7.4307Y-3.6657
X7.4307Y-3.8272
X7.4307Y-3.965
X7.4307Y-4.1264
X7.4307Y-4.2642
X7.5031Y-5.885
X7.5031Y-6.0228
X7.5031Y-6.1843
X7.5031Y-6.322
X7.5031Y-6.4835
X7.5031Y-6.6213
X7.5039Y-8.2402
X7.5039Y-8.378
X7.5039Y-8.5394
X7.5039Y-8.6772
X7.5039Y-8.8386
X7.5039Y-8.9764
X7.5055Y-3.528
X7.5055Y-3.6657
X7.5055Y-3.8272
X7.5055Y-3.965
X7.5055Y-4.1264
X7.5055Y-4.2642
X7.578Y-5.885
X7.578Y-6.0228
X7.578Y-6.1843
X7.578Y-6.322
X7.578Y-6.4835
X7.578Y-6.6213
X7.5787Y-8.2402
X7.5787Y-8.378
X7.5787Y-8.5394
X7.5787Y-8.6772
X7.5787Y-8.8386
X7.5787Y-8.9764
X7.5803Y-3.528
X7.5803Y-3.6657
X7.5803Y-3.8272
X7.5803Y-3.965
X7.5803Y-4.1264
X7.5803Y-4.2642
X7.5984Y-10.4409
X7.626Y-10.2717
X7.6528Y-5.885
X7.6528Y-6.0228
X7.6528Y-6.1843
X7.6528Y-6.322
X7.6528Y-6.4835
X7.6528Y-6.6213
X7.6535Y-8.2402
X7.6535Y-8.378
X7.6535Y-8.5394
X7.6535Y-8.6772
X7.6535Y-8.8386
X7.6535Y-8.9764
X7.6551Y-3.528
X7.6551Y-3.6657
X7.6551Y-3.8272
X7.6551Y-3.965
X7.6551Y-4.1264
X7.6551Y-4.2642
X7.6882Y-5.2591
X7.6882Y-5.2906
X7.6882Y-5.322
X7.6882Y-5.3535
X7.6882Y-5.385
X7.6882Y-5.4165
X7.6882Y-5.448
X7.6882Y-5.4795
X7.6882Y-5.511
X7.6882Y-5.5425
X7.6882Y-5.574
X7.6882Y-5.6055
X7.6882Y-5.637
X7.6882Y-5.6685
X7.6882Y-5.7
X7.6882Y-5.7315
X7.6882Y-5.763
X7.689Y-7.6142
X7.689Y-7.6457
X7.689Y-7.6772
X7.689Y-7.7087
X7.689Y-7.7402
X7.689Y-7.7717
X7.689Y-7.8031
X7.689Y-7.8346
X7.689Y-7.8661
X7.689Y-7.8976
X7.689Y-7.9291
X7.689Y-7.9606
X7.689Y-7.9921
X7.689Y-8.0236
X7.689Y-8.0551
X7.689Y-8.0866
X7.689Y-8.1181
X7.6906Y-2.902
X7.6906Y-2.9335
X7.6906Y-2.965
X7.6906Y-2.9965
X7.6906Y-3.028
X7.6906Y-3.0594
X7.6906Y-3.0909
X7.6906Y-3.1224
X7.6906Y-3.1539
X7.6906Y-3.1854
X7.6906Y-3.2169
X7.6906Y-3.2484
X7.6906Y-3.2799
X7.6906Y-3.3114
X7.6906Y-3.3429
X7.6906Y-3.3744
X7.6906Y-3.4059
X7.7236Y-6.7591
X7.7236Y-6.7906
X7.7236Y-6.822
X7.7236Y-6.8535
X7.7236Y-6.885
X7.7236Y-6.9165
X7.7236Y-6.948
X7.7236Y-6.9795
X7.7236Y-7.011
X7.7244Y-9.1142
X7.7244Y-9.1457
X7.7244Y-9.1772
X7.7244Y-9.2087
X7.7244Y-9.2402
X7.7244Y-9.2717
X7.7244Y-9.3031
X7.7244Y-9.3346
X7.7244Y-9.3661
X7.726Y-4.402
X7.726Y-4.4335
X7.726Y-4.465
X7.726Y-4.4965
X7.726Y-4.528
X7.726Y-4.5594
X7.726Y-4.5909
X7.726Y-4.6224
X7.726Y-4.6539
X7.7276Y-5.885
X7.7276Y-6.0228
X7.7276Y-6.1843
X7.7276Y-6.322
X7.7276Y-6.4835
X7.7276Y-6.6213
X7.7283Y-8.2402
X7.7283Y-8.378
X7.7283Y-8.5394
X7.7283Y-8.6772
X7.7283Y-8.8386
X7.7283Y-8.9764
X7.7299Y-3.528
X7.7299Y-3.6657
X7.7299Y-3.8272
X7.7299Y-3.965
X7.7299Y-4.1264
X7.7299Y-4.2642
X7.7417Y-2.0791
X7.7512Y-6.7472
X7.7512Y-6.7787
X7.7512Y-6.8102
X7.7512Y-6.8417
X7.7512Y-6.8732
X7.7512Y-6.9047
X7.7512Y-6.9362
X7.7512Y-6.9677
X7.7512Y-6.9992
X7.7512Y-7.0346
X7.752Y-9.1024
X7.752Y-9.1339
X7.752Y-9.1654
X7.752Y-9.1969
X7.752Y-9.2283
X7.752Y-9.2598
X7.752Y-9.2913
X7.752Y-9.3228
X7.752Y-9.3543
X7.752Y-9.3898
X7.7535Y-4.3902
X7.7535Y-4.4217
X7.7535Y-4.4531
X7.7535Y-4.4846
X7.7535Y-4.5161
X7.7535Y-4.5476
X7.7535Y-4.5791
X7.7535Y-4.6106
X7.7535Y-4.6421
X7.7535Y-4.6776
X7.7559Y-10.0354
X7.7866Y-7.0346
X7.7874Y-9.3898
X7.789Y-4.6776
X7.7945Y-6.7433
X7.7953Y-9.0984
X7.7969Y-4.3862
X7.8024Y-5.885
X7.8024Y-6.0228
X7.8024Y-6.1843
X7.8024Y-6.322
X7.8024Y-6.4835
X7.8024Y-6.6213
X7.8031Y-8.2402
X7.8031Y-8.378
X7.8031Y-8.5394
X7.8031Y-8.6772
X7.8031Y-8.8386
X7.8031Y-8.9764
X7.8047Y-3.528
X7.8047Y-3.6657
X7.8047Y-3.8272
X7.8047Y-3.965
X7.8047Y-4.1264
X7.8047Y-4.2642
X7.813Y-6.935
X7.813Y-6.9902
X7.813Y-9.2913
X7.813Y-9.3465
X7.8169Y-4.5709
X7.8169Y-4.626
X7.8169Y-6.7894
X7.8169Y-9.1457
X7.8209Y-4.4252
X7.8378Y-7.0346
X7.8386Y-9.3898
X7.8402Y-4.6776
X7.8457Y-6.7433
X7.8465Y-9.0984
X7.848Y-4.3862
X7.8649Y-9.8665
X7.8772Y-6.0228
X7.8772Y-6.1843
X7.8772Y-6.322
X7.8772Y-6.4835
X7.8772Y-6.6213
X7.878Y-8.378
X7.878Y-8.5394
X7.878Y-8.6772
X7.878Y-8.8386
X7.878Y-8.9764
X7.8795Y-3.6657
X7.8795Y-3.8272
X7.8795Y-3.965
X7.8795Y-4.1264
X7.8795Y-4.2642
X7.889Y-7.0346
X7.8898Y-6.7894
X7.8898Y-9.1457
X7.8898Y-9.3898
X7.8913Y-4.6776
X7.8937Y-4.4252
X7.8976Y-6.7421
X7.8976Y-9.0984
X7.9016Y-4.378
X7.9087Y-6.8417
X7.9087Y-6.9441
X7.9094Y-9.1969
X7.9094Y-9.2992
X7.911Y-4.4846
X7.911Y-4.587
X7.9134Y-1.8543
X7.915Y-4.7681
X7.915Y-4.8035
X7.915Y-4.839
X7.915Y-4.8902
X7.915Y-4.9256
X7.915Y-4.961
X7.915Y-4.9965
X7.915Y-5.0319
X7.915Y-5.0673
X7.915Y-7.1224
X7.915Y-7.1579
X7.915Y-7.1933
X7.915Y-7.2445
X7.915Y-7.2799
X7.915Y-7.3154
X7.915Y-7.3508
X7.915Y-7.3862
X7.915Y-7.4217
X7.915Y-7.4571
X7.915Y-7.4925
X7.915Y-9.4807
X7.915Y-9.5161
X7.915Y-9.5516
X7.915Y-9.6028
X7.915Y-9.6382
X7.915Y-9.6736
X7.915Y-9.7091
X7.915Y-9.7445
X7.915Y-9.7799
X7.915Y-9.8154
X7.9323Y-5.322
X7.9323Y-5.4677
X7.9323Y-5.5228
X7.9331Y-7.6772
X7.9331Y-7.8228
X7.9331Y-7.878
X7.9346Y-2.965
X7.9346Y-3.1106
X7.9346Y-3.1657
X7.9362Y-5.6606
X7.9362Y-5.7197
X7.937Y-8.0157
X7.937Y-8.0748
X7.9386Y-3.3035
X7.9386Y-3.3626
X7.939Y-6.7165
X7.939Y-9.0728
X7.9402Y-5.8732
X7.9402Y-7.0346
X7.9409Y-8.2244
X7.9409Y-9.3898
X7.9425Y-3.5161
X7.9425Y-4.6776
X7.9429Y-4.3524
X7.9587Y-6.7854
X7.9587Y-9.1417
X7.9598Y-6.8417
X7.9598Y-6.9441
X7.9606Y-9.1969
X7.9606Y-9.2992
X7.9622Y-4.4846
X7.9622Y-4.587
X7.9626Y-4.4213
X7.9638Y-5.3102
X7.9638Y-5.4677
X7.9638Y-5.5228
X7.9638Y-5.6764
X7.9638Y-5.7354
X7.9638Y-5.889
X7.9646Y-7.6654
X7.9646Y-7.8228
X7.9646Y-7.878
X7.9646Y-8.0315
X7.9646Y-8.0906
X7.9646Y-8.2441
X7.9661Y-2.9531
X7.9661Y-3.1106
X7.9661Y-3.1657
X7.9661Y-3.3193
X7.9661Y-3.3783
X7.9661Y-3.5319
X7.9665Y-6.6811
X7.9665Y-9.0374
X7.9705Y-4.3169
X7.9843Y-6.6398
X7.9843Y-8.9961
X7.9882Y-4.2756
X7.9913Y-7.0346
X7.9921Y-6.5417
X7.9921Y-6.5929
X7.9921Y-8.898
X7.9921Y-8.9492
X7.9921Y-9.3898
X7.9937Y-4.6776
X7.9961Y-4.1776
X7.9961Y-4.2287
X8.0Y-6.4906
X8.0Y-8.8469
X8.0016Y-2.272
X8.0039Y-4.1264
X8.0059Y-5.9642
X8.0059Y-6.0193
X8.0059Y-6.0744
X8.0059Y-6.1295
X8.0059Y-6.1846
X8.0059Y-6.2398
X8.0059Y-6.2949
X8.0059Y-8.3185
X8.0059Y-8.3736
X8.0059Y-8.4287
X8.0059Y-8.4839
X8.0059Y-8.539
X8.0059Y-8.5941
X8.0059Y-8.6492
X8.0079Y-3.6063
X8.0079Y-3.6614
X8.0079Y-3.7165
X8.0079Y-3.7717
X8.0079Y-3.8268
X8.0079Y-3.8819
X8.0079Y-3.937
X8.011Y-6.8417
X8.011Y-6.9441
X8.0118Y-6.7382
X8.0118Y-9.1969
X8.0118Y-9.2992
X8.0134Y-4.4846
X8.0134Y-4.587
X8.0157Y-9.0984
X8.0197Y-4.378
X8.0425Y-7.0346
X8.0433Y-9.3898
X8.0449Y-4.6776
X8.0453Y-5.9642
X8.0453Y-8.3185
X8.0472Y-3.6063
X8.0512Y-6.4744
X8.0512Y-8.8307
X8.0531Y-6.3382
X8.0531Y-8.6925
X8.0543Y-5.389
X8.0543Y-5.6016
X8.0543Y-5.8142
X8.0551Y-3.9803
X8.0551Y-4.1102
X8.0551Y-7.7441
X8.0551Y-7.9567
X8.0551Y-8.1693
X8.0567Y-3.0319
X8.0567Y-3.2445
X8.0567Y-3.4571
X8.0622Y-6.8417
X8.0622Y-6.9441
X8.063Y-9.1969
X8.063Y-9.2992
X8.0646Y-4.4846
X8.0646Y-4.587
X8.0858Y-5.389
X8.0858Y-5.6016
X8.0858Y-5.8142
X8.0866Y-6.5925
X8.0866Y-6.6437
X8.0866Y-6.6949
X8.0866Y-6.7461
X8.0866Y-6.7972
X8.0866Y-7.7441
X8.0866Y-7.9567
X8.0866Y-8.1693
X8.0866Y-8.9488
X8.0866Y-9.0
X8.0866Y-9.0512
X8.0866Y-9.1024
X8.0866Y-9.1535
X8.0882Y-3.0319
X8.0882Y-3.2445
X8.0882Y-3.4571
X8.0886Y-5.9642
X8.0906Y-3.6063
X8.0906Y-4.2283
X8.0906Y-4.2795
X8.0906Y-4.3307
X8.0906Y-4.3819
X8.0906Y-4.4331
X8.0906Y-8.3189
X8.0937Y-7.0346
X8.0945Y-9.3898
X8.0961Y-4.6776
X8.1024Y-3.9177
X8.1024Y-3.9492
X8.1024Y-3.9807
X8.1024Y-4.1106
X8.1024Y-4.1421
X8.1024Y-4.1736
X8.1024Y-6.2748
X8.1024Y-6.3063
X8.1024Y-6.3378
X8.1024Y-6.4677
X8.1024Y-6.4992
X8.1024Y-6.5307
X8.1051Y-8.6299
X8.1051Y-8.6614
X8.1051Y-8.6929
X8.1051Y-8.8228
X8.1051Y-8.8543
X8.1051Y-8.8858
X8.1134Y-6.8417
X8.1134Y-6.9441
X8.1142Y-9.1969
X8.1142Y-9.2992
X8.1157Y-4.4846
X8.1157Y-4.587
X8.1291Y-5.9638
X8.1295Y-8.3189
X8.1315Y-3.6067
X8.1339Y-3.9177
X8.1339Y-4.1736
X8.1339Y-6.2748
X8.1339Y-6.5307
X8.1366Y-8.6299
X8.1366Y-8.8858
X8.1449Y-7.0346
X8.1457Y-9.3898
X8.1472Y-4.6776
X8.1516Y-6.0035
X8.1516Y-6.0587
X8.1516Y-6.1138
X8.1516Y-6.1689
X8.1516Y-6.224
X8.1516Y-8.3579
X8.1516Y-8.413
X8.1516Y-8.4681
X8.1516Y-8.5232
X8.1516Y-8.5783
X8.1535Y-3.6457
X8.1535Y-3.7008
X8.1535Y-3.7559
X8.1535Y-3.811
X8.1535Y-3.8661
X8.1654Y-3.9177
X8.1654Y-4.1736
X8.1654Y-6.2748
X8.1654Y-6.5307
X8.1681Y-8.6299
X8.1681Y-8.8858
X8.1685Y-5.9638
X8.1689Y-8.3189
X8.1709Y-1.8114
X8.1709Y-1.8429
X8.1709Y-3.6067
X8.1961Y-5.3024
X8.1961Y-5.3339
X8.1961Y-5.3654
X8.1961Y-5.3969
X8.1961Y-5.4283
X8.1961Y-5.4598
X8.1961Y-5.4913
X8.1961Y-5.5228
X8.1961Y-5.5543
X8.1961Y-5.5858
X8.1961Y-5.6173
X8.1961Y-5.6488
X8.1961Y-5.6803
X8.1961Y-5.7118
X8.1961Y-5.7433
X8.1961Y-5.7748
X8.1961Y-5.8063
X8.1961Y-5.8378
X8.1961Y-5.8693
X8.1961Y-5.9008
X8.1961Y-5.9323
X8.1961Y-7.0346
X8.1969Y-3.9177
X8.1969Y-4.1736
X8.1969Y-6.2748
X8.1969Y-6.5307
X8.1969Y-7.6575
X8.1969Y-7.689
X8.1969Y-7.7205
X8.1969Y-7.752
X8.1969Y-7.7835
X8.1969Y-7.815
X8.1969Y-7.8465
X8.1969Y-7.878
X8.1969Y-7.9094
X8.1969Y-7.9409
X8.1969Y-7.9724
X8.1969Y-8.0039
X8.1969Y-8.0354
X8.1969Y-8.0669
X8.1969Y-8.0984
X8.1969Y-8.1299
X8.1969Y-8.1614
X8.1969Y-8.1929
X8.1969Y-8.2244
X8.1969Y-8.2559
X8.1969Y-8.2874
X8.1969Y-9.3898
X8.1984Y-2.9453
X8.1984Y-2.9768
X8.1984Y-3.0083
X8.1984Y-3.0398
X8.1984Y-3.0713
X8.1984Y-3.1028
X8.1984Y-3.1343
X8.1984Y-3.1657
X8.1984Y-3.1972
X8.1984Y-3.2287
X8.1984Y-3.2602
X8.1984Y-3.2917
X8.1984Y-3.3232
X8.1984Y-3.3547
X8.1984Y-3.3862
X8.1984Y-3.4177
X8.1984Y-3.4492
X8.1984Y-3.4807
X8.1984Y-3.5122
X8.1984Y-3.5437
X8.1984Y-3.5752
X8.1984Y-4.6776
X8.1996Y-8.6299
X8.1996Y-8.8858
X8.2079Y-5.2709
X8.2087Y-7.626
X8.2102Y-2.9138
X8.2157Y-6.5858
X8.2157Y-6.637
X8.2157Y-6.6882
X8.2157Y-6.7394
X8.2157Y-6.7906
X8.2157Y-6.8417
X8.2157Y-6.8929
X8.2157Y-6.9441
X8.2165Y-8.9409
X8.2165Y-8.9921
X8.2165Y-9.0433
X8.2165Y-9.0945
X8.2165Y-9.1457
X8.2165Y-9.1969
X8.2165Y-9.248
X8.2165Y-9.2992
X8.2181Y-4.2287
X8.2181Y-4.2799
X8.2181Y-4.3311
X8.2181Y-4.3823
X8.2181Y-4.4335
X8.2181Y-4.4846
X8.2181Y-4.5358
X8.2181Y-4.587
X8.2283Y-3.9177
X8.2283Y-4.1736
X8.2283Y-6.2748
X8.2283Y-6.5307
X8.2311Y-8.6299
X8.2311Y-8.8858
X8.2472Y-7.0346
X8.248Y-9.3898
X8.2496Y-4.6776
X8.2512Y-5.2709
X8.252Y-7.626
X8.2535Y-2.9138
X8.2598Y-3.9177
X8.2598Y-4.1736
X8.2598Y-6.2748
X8.2598Y-6.5307
X8.2626Y-8.6299
X8.2626Y-8.8858
X8.2748Y-5.3969
X8.2748Y-5.452
X8.2748Y-5.5071
X8.2748Y-5.5622
X8.2748Y-5.6173
X8.2748Y-5.6724
X8.2748Y-5.7276
X8.2748Y-5.7827
X8.2748Y-5.8378
X8.2748Y-5.8929
X8.2748Y-5.948
X8.2748Y-6.0031
X8.2748Y-6.0583
X8.2748Y-6.1134
X8.2748Y-6.1685
X8.2748Y-6.2236
X8.2756Y-7.752
X8.2756Y-7.8071
X8.2756Y-7.8622
X8.2756Y-7.9173
X8.2756Y-7.9724
X8.2756Y-8.0276
X8.2756Y-8.0827
X8.2756Y-8.1378
X8.2756Y-8.1929
X8.2756Y-8.248
X8.2756Y-8.3031
X8.2756Y-8.3583
X8.2756Y-8.4134
X8.2756Y-8.4685
X8.2756Y-8.5236
X8.2756Y-8.5787
X8.2772Y-3.0949
X8.2772Y-3.15
X8.2772Y-3.2051
X8.2772Y-3.2602
X8.2772Y-3.3154
X8.2772Y-3.3705
X8.2772Y-3.4256
X8.2772Y-3.4807
X8.2772Y-3.5358
X8.2772Y-3.5909
X8.2772Y-3.6461
X8.2772Y-3.7012
X8.2772Y-3.7563
X8.2772Y-3.8114
X8.2772Y-3.8665
X8.2776Y-2.9843
X8.2776Y-3.0394
X8.287Y-1.8193
X8.287Y-1.9079
X8.287Y-1.9374
X8.287Y-1.9669
X8.2913Y-3.9177
X8.2913Y-3.9492
X8.2913Y-3.9807
X8.2913Y-4.1106
X8.2913Y-4.1421
X8.2913Y-4.1736
X8.2913Y-6.2748
X8.2913Y-6.3063
X8.2913Y-6.3378
X8.2913Y-6.4677
X8.2913Y-6.4992
X8.2913Y-6.5307
X8.2941Y-8.6299
X8.2941Y-8.6614
X8.2941Y-8.6929
X8.2941Y-8.8228
X8.2941Y-8.8543
X8.2941Y-8.8858
X8.2984Y-7.0346
X8.2992Y-9.3898
X8.3008Y-4.6776
X8.3063Y-5.2709
X8.3071Y-7.626
X8.3087Y-2.9138
X8.3228Y-3.9177
X8.3228Y-3.9492
X8.3228Y-3.9807
X8.3228Y-4.1106
X8.3228Y-4.1421
X8.3228Y-4.1736
X8.3228Y-6.2748
X8.3228Y-6.3063
X8.3228Y-6.3378
X8.3228Y-6.4677
X8.3228Y-6.4992
X8.3228Y-6.5307
X8.3256Y-8.6299
X8.3256Y-8.6614
X8.3256Y-8.6929
X8.3256Y-8.8228
X8.3256Y-8.8543
X8.3256Y-8.8858
X8.3457Y-6.5858
X8.3457Y-6.637
X8.3457Y-6.6882
X8.3457Y-6.7394
X8.3457Y-6.7906
X8.3457Y-6.8417
X8.3457Y-6.8929
X8.3457Y-6.9441
X8.3465Y-8.9409
X8.3465Y-8.9921
X8.3465Y-9.0433
X8.3465Y-9.0945
X8.3465Y-9.1457
X8.3465Y-9.1969
X8.3465Y-9.248
X8.3465Y-9.2992
X8.348Y-4.2287
X8.348Y-4.2799
X8.348Y-4.3311
X8.348Y-4.3823
X8.348Y-4.4335
X8.348Y-4.4846
X8.348Y-4.5358
X8.348Y-4.587
X8.3496Y-7.0346
X8.3504Y-9.3898
X8.352Y-4.6776
X8.3543Y-3.9177
X8.3543Y-4.1736
X8.3543Y-6.2748
X8.3543Y-6.5307
X8.3571Y-8.6299
X8.3571Y-8.8858
X8.3614Y-5.2709
X8.3622Y-7.626
X8.3638Y-2.9138
X8.3736Y-1.9315
X8.3858Y-3.9177
X8.3858Y-4.1736
X8.3858Y-6.2748
X8.3858Y-6.5307
X8.3886Y-8.6299
X8.3886Y-8.8858
X8.3913Y-5.1264
X8.3913Y-7.4846
X8.4008Y-7.0346
X8.4016Y-9.3898
X8.4031Y-1.9315
X8.4031Y-4.6776
X8.4134Y-9.8307
X8.4165Y-5.2709
X8.4173Y-3.9177
X8.4173Y-4.1736
X8.4173Y-6.2748
X8.4173Y-6.5307
X8.4173Y-7.626
X8.4189Y-2.9138
X8.4201Y-8.6299
X8.4201Y-8.8858
X8.4228Y-4.7602
X8.4228Y-7.1185
X8.4228Y-9.4728
X8.4244Y-5.7276
X8.4244Y-5.7827
X8.4244Y-5.8378
X8.4244Y-5.8929
X8.4244Y-5.948
X8.4244Y-6.0031
X8.4244Y-6.0583
X8.4244Y-6.1134
X8.4244Y-6.1685
X8.4244Y-6.2236
X8.4252Y-8.0827
X8.4252Y-8.1378
X8.4252Y-8.1929
X8.4252Y-8.248
X8.4252Y-8.3031
X8.4252Y-8.3583
X8.4252Y-8.4134
X8.4252Y-8.4685
X8.4252Y-8.5236
X8.4252Y-8.5787
X8.4268Y-3.3705
X8.4268Y-3.4256
X8.4268Y-3.4807
X8.4268Y-3.5358
X8.4268Y-3.5909
X8.4268Y-3.6461
X8.4268Y-3.7012
X8.4268Y-3.7563
X8.4268Y-3.8114
X8.4268Y-3.8665
X8.4268Y-5.1264
X8.4268Y-7.4846
X8.4488Y-3.9177
X8.4488Y-4.1736
X8.4488Y-6.2748
X8.4488Y-6.5307
X8.4516Y-8.6299
X8.4516Y-8.8858
X8.452Y-7.0346
X8.4528Y-9.3898
X8.4543Y-4.6776
X8.4555Y-1.7768
X8.4583Y-4.7602
X8.4583Y-7.1185
X8.4583Y-9.4728
X8.4717Y-5.2709
X8.4717Y-6.5858
X8.4717Y-6.637
X8.4717Y-6.6882
X8.4717Y-6.7394
X8.4717Y-6.7906
X8.4717Y-6.8417
X8.4717Y-6.8929
X8.4717Y-6.9441
X8.4724Y-7.626
X8.4724Y-8.9409
X8.4724Y-8.9921
X8.4724Y-9.0433
X8.4724Y-9.0945
X8.4724Y-9.1457
X8.4724Y-9.1969
X8.4724Y-9.248
X8.4724Y-9.2992
X8.474Y-2.9138
X8.474Y-4.2287
X8.474Y-4.2799
X8.474Y-4.3311
X8.474Y-4.3823
X8.474Y-4.4335
X8.474Y-4.4846
X8.474Y-4.5358
X8.474Y-4.587
X8.4803Y-3.9177
X8.4803Y-4.1736
X8.4803Y-6.2748
X8.4803Y-6.5307
X8.4831Y-8.6299
X8.4831Y-8.8858
X8.4937Y-4.7602
X8.4937Y-7.1185
X8.4937Y-9.4728
X8.5031Y-7.0346
X8.5039Y-9.3898
X8.5055Y-4.6776
X8.5118Y-3.9177
X8.5118Y-3.9492
X8.5118Y-3.9807
X8.5118Y-4.1106
X8.5118Y-4.1421
X8.5118Y-4.1736
X8.5118Y-6.2748
X8.5118Y-6.3063
X8.5118Y-6.3378
X8.5118Y-6.4677
X8.5118Y-6.4992
X8.5118Y-6.5307
X8.5146Y-8.6299
X8.5146Y-8.6614
X8.5146Y-8.6929
X8.5146Y-8.8228
X8.5146Y-8.8543
X8.5146Y-8.8858
X8.5268Y-5.2709
X8.5276Y-7.626
X8.5291Y-2.9138
X8.5291Y-4.7602
X8.5291Y-7.1185
X8.5291Y-9.4728
X8.5543Y-7.0346
X8.5551Y-9.3898
X8.5567Y-4.6776
X8.5591Y-6.4744
X8.5591Y-8.8307
X8.561Y-6.3382
X8.561Y-8.6925
X8.563Y-3.9803
X8.563Y-4.1102
X8.5646Y-4.7602
X8.5646Y-7.1185
X8.5646Y-9.4728
X8.574Y-5.7276
X8.574Y-5.7827
X8.574Y-5.8378
X8.574Y-5.8929
X8.574Y-5.948
X8.574Y-6.0031
X8.574Y-6.0583
X8.574Y-6.1134
X8.574Y-6.1685
X8.574Y-6.2236
X8.5748Y-8.0827
X8.5748Y-8.1378
X8.5748Y-8.1929
X8.5748Y-8.248
X8.5748Y-8.3031
X8.5748Y-8.3583
X8.5748Y-8.4134
X8.5748Y-8.4685
X8.5748Y-8.5236
X8.5748Y-8.5787
X8.5764Y-3.3705
X8.5764Y-3.4256
X8.5764Y-3.4807
X8.5764Y-3.5358
X8.5764Y-3.5909
X8.5764Y-3.6461
X8.5764Y-3.7012
X8.5764Y-3.7563
X8.5764Y-3.8114
X8.5764Y-3.8665
X8.5819Y-5.2709
X8.5827Y-7.626
X8.5843Y-2.9138
X8.5882Y-6.4906
X8.5882Y-8.8469
X8.5898Y-6.5346
X8.5898Y-6.5858
X8.5898Y-6.637
X8.5898Y-6.6882
X8.5898Y-6.7394
X8.5898Y-6.7906
X8.5898Y-6.8417
X8.5898Y-6.8929
X8.5898Y-6.9441
X8.5898Y-6.9953
X8.5906Y-8.8898
X8.5906Y-8.9409
X8.5906Y-8.9921
X8.5906Y-9.0433
X8.5906Y-9.0945
X8.5906Y-9.1457
X8.5906Y-9.1969
X8.5906Y-9.248
X8.5906Y-9.2992
X8.5906Y-9.3504
X8.5921Y-4.1264
X8.5921Y-4.1776
X8.5921Y-4.2287
X8.5921Y-4.2799
X8.5921Y-4.3311
X8.5921Y-4.3823
X8.5921Y-4.4335
X8.5921Y-4.4846
X8.5921Y-4.5358
X8.5921Y-4.587
X8.5921Y-4.6382
X8.5961Y-5.1264
X8.5961Y-7.4846
X8.6Y-4.7602
X8.6Y-7.1185
X8.6Y-9.4728
X8.6161Y-6.311
X8.6161Y-8.6654
X8.6181Y-3.9531
X8.6315Y-5.1264
X8.6315Y-7.4846
X8.637Y-5.2709
X8.6378Y-7.626
X8.6394Y-2.9138
X8.6394Y-7.0673
X8.6472Y-4.713
X8.6516Y-6.2756
X8.6516Y-8.6299
X8.6535Y-3.9177
X8.6551Y-4.772
X8.6591Y-7.1264
X8.6614Y-9.7913
X8.6693Y-9.8346
X8.6772Y-8.7366
X8.6772Y-9.4646
X8.6772Y-9.4961
X8.6772Y-9.5276
X8.6827Y-8.8193
X8.6846Y-6.374
X8.6866Y-4.026
X8.687Y-6.2402
X8.687Y-8.5945
X8.689Y-3.8823
X8.6921Y-5.2709
X8.6929Y-7.626
X8.6945Y-2.9138
X8.7102Y-4.8311
X8.7142Y-7.1854
X8.7157Y-5.3142
X8.7157Y-5.3693
X8.7157Y-5.4244
X8.7157Y-5.4795
X8.7157Y-5.5346
X8.7157Y-5.5898
X8.7157Y-5.6449
X8.7157Y-5.7
X8.7157Y-5.7551
X8.7157Y-5.8102
X8.7157Y-5.8654
X8.7157Y-5.9205
X8.7157Y-5.9756
X8.7157Y-6.0307
X8.7157Y-6.0858
X8.7157Y-6.1409
X8.7157Y-6.1961
X8.7165Y-7.6693
X8.7165Y-7.7244
X8.7165Y-7.7795
X8.7165Y-7.8346
X8.7165Y-7.8898
X8.7165Y-7.9449
X8.7165Y-8.0
X8.7165Y-8.0551
X8.7165Y-8.1102
X8.7165Y-8.1654
X8.7165Y-8.2205
X8.7165Y-8.2756
X8.7165Y-8.3307
X8.7165Y-8.3858
X8.7165Y-8.4409
X8.7165Y-8.4961
X8.7165Y-8.5512
X8.7181Y-2.9571
X8.7181Y-3.0122
X8.7181Y-3.0673
X8.7181Y-3.1224
X8.7181Y-3.1776
X8.7181Y-3.2327
X8.7181Y-3.2878
X8.7181Y-3.3429
X8.7181Y-3.398
X8.7181Y-3.4531
X8.7181Y-3.5083
X8.7181Y-3.5634
X8.7181Y-3.6185
X8.7181Y-3.6736
X8.7181Y-3.7287
X8.7181Y-3.7839
X8.7181Y-3.839
X8.726Y-4.713
X8.7299Y-7.0673
X8.7339Y-4.8902
X8.7339Y-5.0673
X8.7339Y-5.1146
X8.7339Y-7.2445
X8.7339Y-7.4256
X8.7339Y-7.4728
X8.7467Y-4.8085
X8.752Y-2.1579
X8.752Y-9.4646
X8.752Y-9.4961
X8.752Y-9.5276
X8.7693Y-4.772
X8.7732Y-7.1264
X8.7811Y-3.5319
X8.7811Y-5.8862
X8.7811Y-8.2484
X8.7992Y-2.3268
X8.8205Y-4.8311
X8.8244Y-4.8902
X8.8244Y-5.0673
X8.8244Y-5.1146
X8.8244Y-7.1854
X8.8283Y-5.3154
X8.8283Y-5.3705
X8.8283Y-5.4256
X8.8283Y-5.4807
X8.8283Y-5.5358
X8.8283Y-5.5909
X8.8283Y-5.6461
X8.8283Y-5.7012
X8.8283Y-5.7563
X8.8283Y-5.8272
X8.8283Y-5.9571
X8.8283Y-6.0201
X8.8283Y-6.087
X8.8283Y-6.1421
X8.8283Y-6.1972
X8.8283Y-7.2445
X8.8283Y-7.4256
X8.8283Y-7.4728
X8.8283Y-7.6146
X8.8283Y-7.6697
X8.8283Y-7.7248
X8.8283Y-7.7799
X8.8283Y-7.835
X8.8283Y-7.8902
X8.8283Y-7.9453
X8.8283Y-8.0004
X8.8283Y-8.0555
X8.8283Y-8.1106
X8.8283Y-8.1815
X8.8283Y-8.3114
X8.8283Y-8.3744
X8.8283Y-8.4413
X8.8283Y-8.4965
X8.8283Y-8.5516
X8.8283Y-8.6224
X8.8323Y-2.902
X8.8323Y-2.9571
X8.8323Y-3.0122
X8.8323Y-3.0673
X8.8323Y-3.1224
X8.8323Y-3.1776
X8.8323Y-3.2327
X8.8323Y-3.2878
X8.8323Y-3.3429
X8.8323Y-3.398
X8.8323Y-3.4689
X8.8323Y-3.5988
X8.8323Y-3.6618
X8.8323Y-3.7287
X8.8323Y-3.7839
X8.8323Y-3.839
X8.8425Y-2.1614
X8.9213Y-2.0079
X8.9638Y-5.4087
X8.9646Y-7.7638
X8.9661Y-3.0516
X8.9677Y-6.578
X8.9685Y-8.9331
X8.9701Y-4.2209
X8.9961Y-2.7106
X9.0701Y-6.1606
X9.0701Y-6.6409
X9.0701Y-7.1213
X9.0709Y-8.5157
X9.0709Y-8.9961
X9.0709Y-9.4764
X9.0724Y-3.8035
X9.0724Y-4.2839
X9.0724Y-4.7642
X9.0728Y-2.2224
X9.1134Y-5.6528
X9.1142Y-8.0079
X9.1157Y-3.2957
X9.1173Y-5.7945
X9.1173Y-5.8654
X9.1173Y-5.9362
X9.1181Y-8.1496
X9.1181Y-8.2205
X9.1181Y-8.2913
X9.1197Y-3.4374
X9.1197Y-3.5083
X9.1197Y-3.5791
X9.2669Y-6.2118
X9.2669Y-6.6921
X9.2669Y-7.1724
X9.2677Y-8.5669
X9.2677Y-9.0472
X9.2677Y-9.5276
X9.2693Y-3.8547
X9.2693Y-4.335
X9.2693Y-4.8154
X9.374Y-4.9882
X9.5556Y-3.0327
X9.5574Y-4.9234
X9.5591Y-4.0512
X9.5733Y-7.2798
X9.6079Y-5.8154
X9.6126Y-3.261
X9.6144Y-5.1518
X9.6181Y-3.8504
X9.626Y-4.5748
X9.6295Y-2.1937
X9.6303Y-7.5082
X9.6304Y-3.0354
X9.6322Y-4.9234
X9.6481Y-7.2798
X9.6551Y-1.9208
X9.6809Y-5.8471
X9.6855Y-3.261
X9.6873Y-5.1518
X9.7032Y-7.5082
X9.7126Y-3.9291
X9.7126Y-4.1575
X9.7131Y-3.4028
X9.7149Y-5.2935
X9.7288Y-3.0327
X9.7307Y-4.9234
X9.7308Y-7.6499
X9.7402Y-3.9291
X9.7402Y-4.1575
X9.7466Y-7.2798
X9.7677Y-3.9291
X9.7677Y-4.1575
X9.7721Y-3.6311
X9.774Y-5.5219
X9.7879Y-3.261
X9.7879Y-3.4028
X9.7897Y-5.1518
X9.7897Y-5.2935
X9.7899Y-7.8782
X9.8031Y-3.0354
X9.8055Y-4.9234
X9.8056Y-7.5082
X9.8056Y-7.6499
X9.811Y-4.1181
X9.8214Y-7.2798
X9.8469Y-3.6311
X9.848Y-3.6697
X9.8488Y-5.5219
X9.8627Y-3.261
X9.8645Y-5.1518
X9.8647Y-7.8782
X9.8795Y-4.9177
X9.8804Y-7.5082
X9.8863Y-3.3201
X9.8863Y-3.4106
X9.8881Y-5.2108
X9.8881Y-5.3014
X9.904Y-7.5672
X9.904Y-7.6578
X9.9414Y-3.0524
X9.9417Y-4.9431
X9.9496Y-5.5494
X9.9576Y-7.2995
X9.9611Y-3.6587
X9.9655Y-7.9058
X9.9808Y-3.0575
X9.9811Y-4.947
X9.9811Y-5.5455
X9.997Y-7.3034
X9.997Y-7.9019
X10.0Y-9.2402
X10.0134Y-4.8035
X10.035Y-2.1937
X10.0592Y-3.0579
X10.0598Y-4.947
X10.0606Y-1.9217
X10.0757Y-7.3034
X10.0843Y-5.4335
X10.0871Y-3.0524
X10.0913Y-4.9431
X10.1072Y-7.2995
X10.1433Y-5.7091
X10.1433Y-5.7445
X10.187Y-2.0197
X10.187Y-2.0551
X10.2654Y-6.0634
T3
X9.2177Y-3.0618
X9.2177Y-3.1319
X9.2177Y-3.202
X9.2177Y-3.272
X9.2177Y-3.3421
X9.2177Y-3.4122
X9.2177Y-3.4823
X9.2177Y-3.5524
X9.2177Y-3.6224
X9.2177Y-3.7626
X9.2177Y-3.8327
X9.2177Y-4.0028
X9.2177Y-4.0728
X9.2177Y-4.2429
X9.2177Y-4.313
X9.2177Y-4.4831
X9.2177Y-4.5531
X9.2177Y-4.7232
X9.2177Y-4.7933
X9.2177Y-4.9634
X9.2177Y-5.0335
X9.2177Y-5.4189
X9.2177Y-5.489
X9.2177Y-5.5591
X9.2177Y-5.6291
X9.2177Y-5.6992
X9.2177Y-5.7693
X9.2177Y-5.8394
X9.2177Y-5.9094
X9.2177Y-5.9795
X9.2177Y-6.1197
X9.2177Y-6.1898
X9.2177Y-6.3598
X9.2177Y-6.4299
X9.2177Y-6.6
X9.2177Y-6.6701
X9.2177Y-6.8402
X9.2177Y-6.9102
X9.2177Y-7.0803
X9.2177Y-7.1504
X9.2177Y-7.3205
X9.2177Y-7.3906
X9.2177Y-7.776
X9.2177Y-7.8461
X9.2177Y-7.9161
X9.2177Y-7.9862
X9.2177Y-8.0563
X9.2177Y-8.1264
X9.2177Y-8.1965
X9.2177Y-8.2665
X9.2177Y-8.3366
X9.2177Y-8.4768
X9.2177Y-8.5469
X9.2177Y-8.7169
X9.2177Y-8.787
X9.2177Y-8.9571
X9.2177Y-9.0272
X9.2177Y-9.1972
X9.2177Y-9.2673
X9.2177Y-9.4374
X9.2177Y-9.5075
X9.2177Y-9.6776
X9.2177Y-9.7476
T4
X6.7807Y-2.0242
X6.7807Y-2.1242
X6.7807Y-2.2246
X6.7807Y-2.324
X6.8807Y-1.9742
X6.8807Y-2.0742
X6.8807Y-2.1742
X6.8807Y-2.2742
X7.0406Y-2.0242
X7.0406Y-2.1242
X7.0406Y-2.2246
X7.0406Y-2.324
X7.1406Y-1.9742
X7.1406Y-2.0742
X7.1406Y-2.1742
X7.1406Y-2.2742
T5
X7.7972Y-2.8051
X7.7972Y-5.2461
X7.8091Y-7.5394
X8.6197Y-1.8154
X8.7197Y-1.8154
X8.8197Y-1.8154
X8.9197Y-1.8154
X9.0141Y-2.2399
X9.0141Y-2.3399
X9.0141Y-2.6399
X9.0141Y-2.8399
X9.0685Y-1.8272
X9.5449Y-5.4098
X9.6118Y-7.9846
X9.8844Y-9.4783
X9.9844Y-9.4783
X10.0844Y-9.4783
X10.1181Y-3.6575
X10.1844Y-9.4783
X10.2844Y-9.4783
T6
X6.4307Y-1.8791
X6.4307Y-1.9791
X6.4307Y-2.3193
X6.4307Y-2.4193
X7.2594Y-1.8791
X7.2594Y-1.9791
X7.2594Y-2.3193
X7.2594Y-2.4193
T7
X6.3051Y-10.626
X6.4132Y-9.4295
X6.4152Y-7.7917
X6.4156Y-7.072
X6.4171Y-5.435
X6.4177Y-4.7154
X6.4195Y-3.078
X7.1909Y-10.626
X7.4959Y-9.4295
X7.4978Y-7.7917
X7.4982Y-7.072
X7.4998Y-5.435
X7.5004Y-4.7154
X7.5022Y-3.078
X7.5787Y-10.1772
X7.6969Y-10.1772
T8
X7.8043Y-3.078
X7.8043Y-3.2079
X7.8043Y-3.3378
X7.8043Y-3.5976
X7.8043Y-3.8976
X7.8043Y-4.1976
X7.8043Y-4.4976
X7.8043Y-4.7976
X7.8043Y-4.9276
X7.8043Y-5.435
X7.8043Y-5.565
X7.8043Y-5.6949
X7.8043Y-5.9547
X7.8043Y-6.2547
X7.8043Y-6.5547
X7.8043Y-6.8547
X7.8043Y-7.1547
X7.8043Y-7.2846
X7.8043Y-7.7921
X7.8043Y-7.922
X7.8043Y-8.052
X7.8043Y-8.3118
X7.8043Y-8.6118
X7.8043Y-8.9118
X7.8043Y-9.2118
X7.8043Y-9.5118
X7.8043Y-9.6417
T9
X6.8447Y-9.951
X6.8447Y-10.251
X6.8512Y-3.5963
X6.8512Y-3.8963
X6.8512Y-4.1963
X6.8512Y-5.9533
X6.8512Y-6.2533
X6.8512Y-6.5533
X6.8512Y-8.3104
X6.8512Y-8.6104
X6.8512Y-8.9104
X7.1447Y-9.951
X7.1447Y-10.251
X7.1512Y-3.5963
X7.1512Y-3.8963
X7.1512Y-4.1963
X7.1512Y-5.9533
X7.1512Y-6.2533
X7.1512Y-6.5533
X7.1512Y-8.3104
X7.1512Y-8.6104
X7.1512Y-8.9104
T10
X6.3457Y-1.8169
X6.3457Y-2.4815
X6.9106Y-1.8437
X6.9106Y-2.4547
X7.0807Y-1.8169
X7.0807Y-2.4815
M30
