%TF.GenerationSoftware,KiCad,Pcbnew,8.0.1*%
%TF.CreationDate,2026-01-06T19:49:34-05:00*%
%TF.ProjectId,high voltage servo drive 3ch,68696768-2076-46f6-9c74-616765207365,rev?*%
%TF.SameCoordinates,Original*%
%TF.FileFunction,Soldermask,Bot*%
%TF.FilePolarity,Negative*%
%FSLAX46Y46*%
G04 Gerber Fmt 4.6, Leading zero omitted, Abs format (unit mm)*
G04 Created by KiCad (PCBNEW 8.0.1) date 2026-01-06 19:49:34*
%MOMM*%
%LPD*%
G01*
G04 APERTURE LIST*
%ADD10R,1.600000X1.600000*%
%ADD11O,1.600000X1.600000*%
%ADD12C,7.800000*%
%ADD13R,1.371600X1.371600*%
%ADD14C,1.371600*%
%ADD15C,1.854200*%
%ADD16C,2.000000*%
%ADD17C,2.374900*%
%ADD18C,0.990600*%
%ADD19C,2.400000*%
%ADD20C,3.000000*%
%ADD21R,1.500000X1.500000*%
%ADD22C,1.500000*%
%ADD23C,3.250000*%
%ADD24C,1.700000*%
%ADD25C,1.800000*%
%ADD26C,2.600000*%
%ADD27R,1.700000X1.700000*%
%ADD28O,1.700000X1.700000*%
G04 APERTURE END LIST*
D10*
%TO.C,U19*%
X262925000Y-206100000D03*
D11*
X260385000Y-206100000D03*
X260385000Y-213720000D03*
X262925000Y-213720000D03*
%TD*%
D12*
%TO.C,U18*%
X216180000Y-199550000D03*
X216180000Y-245550000D03*
D13*
X234130002Y-247590000D03*
D14*
X234130002Y-245810000D03*
X234130002Y-241490000D03*
X234130002Y-239710000D03*
X234130002Y-235390000D03*
X234130002Y-233610000D03*
X234130002Y-229290000D03*
X234130002Y-227510000D03*
X234130002Y-223190000D03*
X234130002Y-221410000D03*
X234130002Y-217090000D03*
X234130002Y-215310000D03*
X234130002Y-211750000D03*
X234130002Y-209970000D03*
X234130002Y-208190000D03*
X234130002Y-206410000D03*
X234130002Y-204630000D03*
X234130002Y-202850000D03*
X234130002Y-201070000D03*
X234130002Y-199290000D03*
X234130002Y-197510000D03*
D15*
X198229998Y-197920000D03*
X198229998Y-201220000D03*
X198229998Y-204520000D03*
X198229998Y-211120000D03*
X198229998Y-218740000D03*
X198229998Y-226360000D03*
X198229998Y-233980000D03*
X198229998Y-241600000D03*
X198229998Y-244900000D03*
%TD*%
D12*
%TO.C,U17*%
X216180000Y-139680000D03*
X216180000Y-185680000D03*
D13*
X234130002Y-187720000D03*
D14*
X234130002Y-185940000D03*
X234130002Y-181620000D03*
X234130002Y-179840000D03*
X234130002Y-175520000D03*
X234130002Y-173740000D03*
X234130002Y-169420000D03*
X234130002Y-167640000D03*
X234130002Y-163320000D03*
X234130002Y-161540000D03*
X234130002Y-157220000D03*
X234130002Y-155440000D03*
X234130002Y-151880000D03*
X234130002Y-150100000D03*
X234130002Y-148320000D03*
X234130002Y-146540000D03*
X234130002Y-144760000D03*
X234130002Y-142980000D03*
X234130002Y-141200000D03*
X234130002Y-139420000D03*
X234130002Y-137640000D03*
D15*
X198229998Y-138050000D03*
X198229998Y-141350000D03*
X198229998Y-144650000D03*
X198229998Y-151250000D03*
X198229998Y-158870000D03*
X198229998Y-166490000D03*
X198229998Y-174110000D03*
X198229998Y-181730000D03*
X198229998Y-185030000D03*
%TD*%
D10*
%TO.C,U16*%
X254375000Y-213700000D03*
D11*
X256915000Y-213700000D03*
X256915000Y-206080000D03*
X254375000Y-206080000D03*
%TD*%
D10*
%TO.C,U15*%
X248375000Y-213700000D03*
D11*
X250915000Y-213700000D03*
X250915000Y-206080000D03*
X248375000Y-206080000D03*
%TD*%
D12*
%TO.C,U2*%
X216180000Y-79810000D03*
X216180000Y-125810000D03*
D13*
X234130002Y-127850000D03*
D14*
X234130002Y-126070000D03*
X234130002Y-121750000D03*
X234130002Y-119970000D03*
X234130002Y-115650000D03*
X234130002Y-113870000D03*
X234130002Y-109550000D03*
X234130002Y-107770000D03*
X234130002Y-103450000D03*
X234130002Y-101670000D03*
X234130002Y-97350000D03*
X234130002Y-95570000D03*
X234130002Y-92010000D03*
X234130002Y-90230000D03*
X234130002Y-88450000D03*
X234130002Y-86670000D03*
X234130002Y-84890000D03*
X234130002Y-83110000D03*
X234130002Y-81330000D03*
X234130002Y-79550000D03*
X234130002Y-77770000D03*
D15*
X198229998Y-78180000D03*
X198229998Y-81480000D03*
X198229998Y-84780000D03*
X198229998Y-91380000D03*
X198229998Y-99000000D03*
X198229998Y-106620000D03*
X198229998Y-114240000D03*
X198229998Y-121860000D03*
X198229998Y-125160000D03*
%TD*%
D16*
%TO.C,TP10*%
X198050000Y-71250000D03*
%TD*%
D17*
%TO.C,J3*%
X257100000Y-176800000D03*
D18*
X259640000Y-176800000D03*
D17*
X262180000Y-176800000D03*
X257100000Y-173625000D03*
X262180000Y-173625000D03*
D18*
X258624000Y-171720000D03*
X260656000Y-171720000D03*
%TD*%
D16*
%TO.C,TP12*%
X198350000Y-191500000D03*
%TD*%
%TO.C,TP9*%
X244140000Y-202810000D03*
%TD*%
%TO.C,TP11*%
X198050000Y-133250000D03*
%TD*%
%TO.C,TP8*%
X242440000Y-137410000D03*
%TD*%
%TO.C,TP14*%
X230340000Y-46410000D03*
%TD*%
%TO.C,TP2*%
X257000000Y-92900000D03*
%TD*%
D19*
%TO.C,C133*%
X190455000Y-179630000D03*
X162955000Y-179630000D03*
%TD*%
D20*
%TO.C,J7*%
X181475000Y-260375000D03*
X173855000Y-260375000D03*
X181475000Y-252755000D03*
X173855000Y-252755000D03*
%TD*%
D19*
%TO.C,L9*%
X192500000Y-258500000D03*
X195500000Y-258500000D03*
%TD*%
%TO.C,C21*%
X163055000Y-78180000D03*
X190555000Y-78180000D03*
%TD*%
%TO.C,C130*%
X182650000Y-269900000D03*
X160150000Y-269900000D03*
%TD*%
D20*
%TO.C,J6*%
X181640000Y-226325000D03*
X174020000Y-226325000D03*
X181640000Y-218705000D03*
X174020000Y-218705000D03*
X181640000Y-211085000D03*
X174020000Y-211085000D03*
%TD*%
D21*
%TO.C,PS1*%
X228957500Y-56892500D03*
D22*
X228957500Y-59432500D03*
X228957500Y-67052500D03*
X228957500Y-72132500D03*
%TD*%
D19*
%TO.C,C132*%
X162995000Y-138050000D03*
X190495000Y-138050000D03*
%TD*%
D23*
%TO.C,J1*%
X165880000Y-54590000D03*
D24*
X172230000Y-59030500D03*
X174770000Y-57765000D03*
X172230000Y-56505000D03*
X174770000Y-55225000D03*
X172230000Y-53955000D03*
X174770000Y-52685000D03*
X172230000Y-51415000D03*
X174770000Y-50145000D03*
D25*
X163340000Y-58910000D03*
X163340000Y-61450000D03*
X163340000Y-47730000D03*
X163340000Y-50270000D03*
D24*
X181370000Y-50145000D03*
X178830000Y-51415000D03*
X181370000Y-52685000D03*
X178830000Y-53955000D03*
X181370000Y-55225000D03*
X178830000Y-56505000D03*
X181370000Y-57765000D03*
X178830000Y-59030500D03*
D25*
X184390000Y-58910000D03*
X184390000Y-61450000D03*
X184390000Y-47730000D03*
X184390000Y-50270000D03*
D26*
X161180000Y-63030000D03*
X179850000Y-63030000D03*
X175530000Y-62350000D03*
X175530000Y-46830000D03*
X161180000Y-46150000D03*
X179850000Y-46150000D03*
%TD*%
D27*
%TO.C,M1*%
X218940000Y-46110000D03*
D28*
X221480000Y-46110000D03*
X224020000Y-46110000D03*
X226560000Y-46110000D03*
%TD*%
D19*
%TO.C,C135*%
X190395000Y-239510000D03*
X162895000Y-239510000D03*
%TD*%
D27*
%TO.C,J8*%
X261225000Y-240750000D03*
D28*
X258685000Y-240750000D03*
X256145000Y-240750000D03*
X253605000Y-240750000D03*
X251065000Y-240750000D03*
%TD*%
D19*
%TO.C,C134*%
X162945000Y-197910000D03*
X190445000Y-197910000D03*
%TD*%
D20*
%TO.C,J4*%
X181640000Y-106585000D03*
X174020000Y-106585000D03*
X181640000Y-98965000D03*
X174020000Y-98965000D03*
X181640000Y-91345000D03*
X174020000Y-91345000D03*
%TD*%
%TO.C,J5*%
X181640000Y-166455000D03*
X174020000Y-166455000D03*
X181640000Y-158835000D03*
X174020000Y-158835000D03*
X181640000Y-151215000D03*
X174020000Y-151215000D03*
%TD*%
D19*
%TO.C,C131*%
X190510000Y-119770000D03*
X163010000Y-119770000D03*
%TD*%
M02*
